<svg width="78" height="32" viewBox="0 0 78 32" fill="none" xmlns="http://www.w3.org/2000/svg">
<path fill-rule="evenodd" clip-rule="evenodd" d="M51.2529 17.2781C51.2594 17.0547 51.2626 16.8292 51.2626 16.6016V15.258C51.2609 14.881 51.2499 14.5098 51.2296 14.1444H44.3489C44.3692 14.5405 44.3794 14.9519 44.3794 15.3783V16.7219C44.3785 16.9102 44.3756 17.0956 44.3708 17.2781H51.2529ZM51.1013 19.2781C50.8783 21.055 50.4244 22.6829 49.7394 24.1618C48.724 26.3543 47.2779 28.0455 45.4013 29.2353C43.5374 30.4118 41.4101 31 39.0193 31C36.6285 31 34.5076 30.4318 32.6566 29.2955C30.8056 28.1457 29.3596 26.508 28.3184 24.3824C27.2901 22.2567 26.7502 19.8168 26.6988 17.0628V15.4184C26.6988 12.5575 27.2001 10.0374 28.2027 7.85829C29.2182 5.66578 30.6642 3.9746 32.5409 2.78476C34.4304 1.59492 36.577 1 38.9807 1C41.3587 1 43.4796 1.58824 45.3434 2.76471C47.2072 3.94118 48.6533 5.61898 49.6816 7.79813C50.3201 9.12623 50.7652 10.575 51.017 12.1444H44.1395C43.9121 10.7812 43.5228 9.65996 42.9719 8.78075C42.0464 7.27005 40.716 6.51471 38.9807 6.51471C35.5873 6.51471 33.7942 9.16176 33.6014 14.4559L33.5821 16.6016C33.5821 19.4626 34.0384 21.6618 34.951 23.1992C35.8636 24.7366 37.2197 25.5053 39.0193 25.5053C40.7289 25.5053 42.0464 24.75 42.9719 23.2393C43.5962 22.2201 44.0129 20.8997 44.2219 19.2781H51.1013ZM2 1.40107V30.5989H13.395C16.8141 30.5722 19.3913 29.8436 21.1266 28.4131C22.8748 26.9692 23.7488 24.8168 23.7488 21.9559C23.7488 20.3783 23.3568 19.0414 22.5727 17.9452C21.7886 16.8489 20.6639 16.1003 19.1985 15.6992C20.4968 15.1912 21.4801 14.4024 22.1485 13.3329C22.8169 12.2634 23.1511 10.9733 23.1511 9.46257C23.1511 6.84225 22.2064 4.84358 20.3168 3.46658C18.4402 2.08957 15.6958 1.40107 12.0839 1.40107H2ZM8.76759 25.1845V18.1858H13.5107C15.8372 18.1992 17.0005 19.4225 17.0005 21.8556C17.0005 22.9118 16.6727 23.734 16.0172 24.3222C15.3616 24.8971 14.4233 25.1845 13.2022 25.1845H8.76759ZM12.296 13.5735H8.76759V6.83556H12.0839C13.6007 6.83556 14.6997 7.10963 15.3809 7.65775C16.0622 8.19251 16.4028 9.07487 16.4028 10.3048C16.4028 11.3743 16.0879 12.1832 15.4581 12.7313C14.8282 13.2794 13.7742 13.5602 12.296 13.5735ZM69.2324 22.8382C69.2324 21.8088 68.8789 21.0067 68.172 20.4318C67.4779 19.857 66.2503 19.262 64.4893 18.6471C62.7283 18.0321 61.2887 17.4372 60.1704 16.8623C56.5327 15.004 54.7139 12.4505 54.7139 9.20187C54.7139 7.58422 55.1638 6.16043 56.0636 4.93048C56.9762 3.68717 58.2616 2.7246 59.9198 2.04278C61.5779 1.34759 63.4417 1 65.5112 1C67.5293 1 69.3352 1.37433 70.9291 2.12299C72.5359 2.87166 73.7827 3.94118 74.6696 5.33155C75.5565 6.70856 76 8.2861 76 10.0642H69.2517C69.2517 8.87433 68.8982 7.95187 68.1912 7.29679C67.4971 6.64171 66.5524 6.31417 65.357 6.31417C64.1487 6.31417 63.1911 6.59492 62.4841 7.15642C61.79 7.70455 61.4429 8.40642 61.4429 9.26203C61.4429 10.0107 61.8286 10.6925 62.5998 11.3075C63.371 11.9091 64.7271 12.5374 66.6681 13.1925C68.609 13.8342 70.2029 14.5294 71.4497 15.2781C74.4832 17.0963 76 19.6029 76 22.7981C76 25.3516 75.0745 27.357 73.2236 28.8142C71.3726 30.2714 68.8339 31 65.6076 31C63.3325 31 61.2694 30.5789 59.4184 29.7366C57.5803 28.881 56.1921 27.7179 55.2538 26.2473C54.3283 24.7634 53.8656 23.0588 53.8656 21.1337H60.6524C60.6524 22.6979 61.038 23.8543 61.8093 24.6029C62.5934 25.3382 63.8595 25.7059 65.6076 25.7059C66.7259 25.7059 67.6064 25.4586 68.2491 24.9639C68.9046 24.4559 69.2324 23.7473 69.2324 22.8382Z" fill="#1A1A1A"/>
</svg>
